# xmcd CD database file
#
# Track frame offsets:
#	150
#	23260
#	46275
#	72012
#	93520
#	110812
#	134375
#	156457
#	180237
#	206285
#
# Disc length: 3065 seconds
#
# Revision: 34
# Processed by: cddbd v1.5.2PL0 Copyright (c) Steve Scherf et al.
# Submitted via: CDex 1.70beta3
#
DISCID=7c0bf70a
DTITLE=鬼束ちひろ - This Armor
DYEAR=2002
DGENRE=Japanese Pop
TTITLE0=ROLLIN'
TTITLE1=茨の海
TTITLE2=シャドウ
TTITLE3=everything, in my hands
TTITLE4=Our Song
TTITLE5=流星群
TTITLE6=LITTLE BEAT RIFLE
TTITLE7=Arrow of Pain
TTITLE8=infection
TTITLE9=CROW
EXTD=YEAR: 2002
EXTT0=
EXTT1=
EXTT2=
EXTT3=
EXTT4=
EXTT5=
EXTT6=
EXTT7=
EXTT8=
EXTT9=
PLAYORDER=
